:SAMPLES-PER-SECOND 30
:FULLY-SPECIFIED
:DEGREES
154
root  -2.83128 40.9588 0.746711 18.6041 -88.7908 -19.6244
RightUpLeg  6.4238 -0.810668 0.286691
RightLeg  -3.93488 -18.1402 1.52101
RightFoot  -0.777109 -0.137239 1.4177
RightToes  -3.10678e-008 1.75238e-005 3.56266e-009
Spine  -3.65045 2.5792 1.37145
Spine1  3.56307 3.25143 -3.41106
HEad  0.314175 -6.90424 4.43435
LeftShoulder1  2.43109 -4.09395 -25.8582
LeftArm  -46.7985 24.2533 -56.2519
LeftForeArm  76.549 -7.59495 3.59914
LeftHand  -0.583408 -5.80763 6.36868
RightShoulder  -0.197719 -4.65558 9.47877
RightArm  -64.8357 41.2643 -4.87171
RightForeArm  119.239 68.4044 149.183
RightHand  0.486143 11.4915 2.90178
LeftUpLeg  4.48554 1.50082 2.68615
LeftLeg  -1.5238 12.2878 -0.42158
LeftFoot  -1.13694 0.27842 -3.0119
LeftToes  4.76857e-008 1.46588e-008 1.31384e-009
155
root  -2.84055 40.9555 0.708594 15.7411 -88.7068 -16.8896
RightUpLeg  6.57754 -0.835677 0.321326
RightLeg  -3.91679 -18.2733 1.53709
RightFoot  -0.875456 -0.129134 1.30712
RightToes  -3.10678e-008 1.75238e-005 3.56266e-009
Spine  -4.04869 2.61092 1.12373
Spine1  4.21234 3.30984 -3.34714
HEad  0.0475633 -8.64823 4.45061
LeftShoulder1  2.44754 -4.14355 -25.8656
LeftArm  -47.2085 23.4108 -56.3913
LeftForeArm  77.1151 -6.93592 4.23024
LeftHand  -0.573136 -5.56169 6.38964
RightShoulder  -0.155795 -4.39984 9.62811
RightArm  -63.6045 41.2922 -4.52846
RightForeArm  120.017 68.1384 149.67
RightHand  0.450451 11.8112 2.5977
LeftUpLeg  4.57061 1.53807 2.72485
LeftLeg  -1.40255 12.1423 -0.377163
LeftFoot  -1.18935 0.286787 -3.12664
LeftToes  4.76857e-008 1.46588e-008 1.31384e-009
156
root  -2.85396 40.9583 0.696206 14.5552 -88.766 -15.5865
RightUpLeg  6.57142 -0.842983 0.292884
RightLeg  -4.1473 -18.2446 1.61018
RightFoot  -0.808498 -0.129818 1.32722
RightToes  -3.10678e-008 1.75238e-005 3.56266e-009
Spine  -4.35184 2.73773 0.975975
Spine1  4.20964 3.44812 -3.32779
HEad  0.316657 -9.54517 4.64519
LeftShoulder1  2.48926 -4.26099 -25.9223
LeftArm  -47.2608 23.2495 -55.9803
LeftForeArm  77.4553 -6.52606 4.44467
LeftHand  -0.538539 -5.5631 6.01918
RightShoulder  -0.112543 -4.14734 9.595
RightArm  -62.7747 41.3941 -4.00376
RightForeArm  119.491 68.3692 149.266
RightHand  0.501623 11.2552 3.05877
LeftUpLeg  4.57144 1.48906 2.6866
LeftLeg  -1.61687 12.2409 -0.42473
LeftFoot  -1.09227 0.288077 -3.13126
LeftToes  4.76857e-008 1.46588e-008 1.31384e-009
157
root  -2.85288 40.9604 0.697812 16.2437 -88.776 -17.1552
RightUpLeg  6.50311 -0.755339 0.34864
RightLeg  -4.28747 -18.3136 1.62941
RightFoot  -0.73827 -0.129864 1.33286
RightToes  -3.10678e-008 1.75238e-005 3.56266e-009
Spine  -4.52807 2.86887 0.89204
Spine1  4.29567 3.54786 -3.15672
HEad  0.311801 -9.68336 4.75476
LeftShoulder1  2.46386 -4.15401 -26.0417
LeftArm  -46.7977 23.1505 -55.5185
LeftForeArm  77.0975 -6.66425 4.13757
LeftHand  -0.496551 -5.12131 5.7863
RightShoulder  -0.0811209 -3.96397 9.54126
RightArm  -62.8335 41.2692 -4.30019
RightForeArm  119.683 68.4208 149.209
RightHand  0.446591 11.494 2.6336
LeftUpLeg  4.47886 1.50189 2.71965
LeftLeg  -1.69018 12.2433 -0.443287
LeftFoot  -1.04837 0.294176 -3.21083
LeftToes  4.76857e-008 1.46588e-008 1.31384e-009
158
root  -2.84055 40.9631 0.708023 15.1015 -88.742 -15.9499
RightUpLeg  6.40027 -0.747312 0.325942
RightLeg  -4.25848 -18.3693 1.60549
RightFoot  -0.712661 -0.134378 1.40437
RightToes  -3.10678e-008 1.75238e-005 3.56266e-009
Spine  -4.49272 2.9391 0.908868
Spine1  4.25326 3.61745 -3.13978
HEad  0.257503 -9.59552 4.9262
LeftShoulder1  2.47754 -4.19345 -26.0551
LeftArm  -46.9649 23.0125 -55.1065
LeftForeArm  76.9079 -6.58009 4.26921
LeftHand  -0.548989 -5.47785 6.17868
RightShoulder  -0.0668185 -3.87996 9.52934
RightArm  -62.9312 41.1712 -4.52406
RightForeArm  118.876 68.34 149.242
RightHand  0.52939 10.8027 3.35568
LeftUpLeg  4.43549 1.51414 2.71755
LeftLeg  -1.78762 12.1836 -0.512316
LeftFoot  -0.986493 0.295667 -3.21896
LeftToes  4.76857e-008 1.46588e-008 1.31384e-009
159
root  -2.81672 40.9641 0.722015 16.1938 -88.6531 -17.0612
RightUpLeg  6.39341 -0.719703 0.365283
RightLeg  -4.27019 -18.49 1.62111
RightFoot  -0.677456 -0.132382 1.3725
RightToes  -3.10678e-008 1.75238e-005 3.56266e-009
Spine  -4.41014 2.93385 1.03639
Spine1  4.31437 3.62426 -3.25201
HEad  0.124968 -9.28018 5.01794
LeftShoulder1  2.45381 -4.16019 -25.8786
LeftArm  -46.9438 22.7756 -54.8786
LeftForeArm  75.9781 -6.43482 4.22108
LeftHand  -0.549791 -5.22591 6.31741
RightShoulder  -0.0605832 -3.84053 9.65655
RightArm  -63.0836 41.1658 -4.64893
RightForeArm  119.715 68.2141 149.524
RightHand  0.490959 10.7833 3.08898
LeftUpLeg  4.37998 1.58145 2.78211
LeftLeg  -1.72178 12.0341 -0.541034
LeftFoot  -1.00751 0.296434 -3.21622
LeftToes  4.76857e-008 1.46588e-008 1.31384e-009
160
root  -2.78844 40.9645 0.734344 13.9996 -88.5309 -14.8489
RightUpLeg  6.32091 -0.74546 0.317334
RightLeg  -4.21501 -18.5762 1.6254
RightFoot  -0.702458 -0.13218 1.36724
RightToes  -3.10678e-008 1.75238e-005 3.56266e-009
Spine  -4.48062 2.95812 0.927479
Spine1  4.58931 3.62417 -3.06212
HEad  0.0664466 -8.81803 4.8625
LeftShoulder1  2.50002 -4.27045 -26.0255
LeftArm  -47.1745 22.2709 -54.5797
LeftForeArm  76.62 -6.20315 4.59288
LeftHand  -0.562761 -5.68523 6.21396
RightShoulder  -0.07026 -3.89693 9.66848
RightArm  -63.3968 41.0744 -4.81103
RightForeArm  119.861 68.1111 149.692
RightHand  0.489885 11.0496 3.02123
LeftUpLeg  4.2652 1.54855 2.73929
LeftLeg  -1.66087 11.9471 -0.524922
LeftFoot  -0.981454 0.297453 -3.21794
LeftToes  4.76857e-008 1.46588e-008 1.31384e-009
161
root  -2.7639 40.9645 0.752259 12.6743 -88.4683 -13.4807
RightUpLeg  6.18229 -0.747604 0.283817
RightLeg  -4.08895 -18.6393 1.56605
RightFoot  -0.71169 -0.133536 1.38604
RightToes  -3.10678e-008 1.75238e-005 3.56266e-009
Spine  -4.67303 2.97819 1.02617
Spine1  4.98915 3.66583 -3.11916
HEad  -0.115673 -8.15269 4.81884
LeftShoulder1  2.54815 -4.37981 -26.1957
LeftArm  -47.2292 21.7801 -54.3051
LeftForeArm  77.154 -6.12501 4.82956
LeftHand  -0.533868 -5.60703 5.9502
RightShoulder  -0.0921305 -4.02215 9.77588
RightArm  -63.6586 41.1196 -4.91421
RightForeArm  120.652 67.9701 149.987
RightHand  0.450292 11.1096 2.73036
LeftUpLeg  4.16422 1.4798 2.66739
LeftLeg  -1.65354 11.9589 -0.505669
LeftFoot  -0.940674 0.295374 -3.17209
LeftToes  4.76857e-008 1.46588e-008 1.31384e-009
162
root  -2.74104 40.9641 0.773526 11.435 -88.4397 -12.2276
RightUpLeg  6.07426 -0.75542 0.230505
RightLeg  -3.96647 -18.6735 1.50818
RightFoot  -0.724292 -0.138364 1.45338
RightToes  -3.10678e-008 1.75238e-005 3.56266e-009
Spine  -4.63116 2.94037 1.15351
Spine1  5.01323 3.64729 -3.25117
HEad  0.072149 -7.59853 4.69818
LeftShoulder1  2.61718 -4.52819 -26.4707
LeftArm  -46.6352 21.8044 -53.9568
LeftForeArm  79.0225 -6.57371 4.64299
LeftHand  -0.595398 -5.72888 6.53412
RightShoulder  -0.0706718 -3.89136 10.028
RightArm  -63.8044 41.0197 -5.1961
RightForeArm  121.914 67.9968 150.087
RightHand  0.42844 11.0421 2.59136
LeftUpLeg  4.07639 1.40962 2.58281
LeftLeg  -1.58297 12.0186 -0.464403
LeftFoot  -0.956773 0.297568 -3.19356
LeftToes  4.76857e-008 1.46588e-008 1.31384e-009
163
root  -2.72398 40.9635 0.803547 11.9922 -88.4837 -12.8351
RightUpLeg  6.06361 -0.748477 0.207227
RightLeg  -3.88941 -18.6262 1.44457
RightFoot  -0.741313 -0.135772 1.4018
RightToes  -3.10678e-008 1.75238e-005 3.56266e-009
Spine  -4.71437 2.8902 1.33835
Spine1  5.24608 3.61637 -3.38524
HEad  0.135483 -7.17565 4.73821
LeftShoulder1  2.63352 -4.57212 -26.4944
LeftArm  -46.2371 21.5561 -53.9898
LeftForeArm  80.5826 -6.38855 4.67721
LeftHand  -0.60454 -5.94 6.51577
RightShoulder  -0.0339107 -3.67725 10.3251
RightArm  -63.7792 41.0543 -5.39172
RightForeArm  122.603 67.9646 150.21
RightHand  0.438155 10.8761 2.69253
LeftUpLeg  4.1005 1.37354 2.52706
LeftLeg  -1.55456 12.0915 -0.438043
LeftFoot  -0.99018 0.298286 -3.19298
LeftToes  4.76857e-008 1.46588e-008 1.31384e-009
164
root  -2.71172 40.9627 0.829988 12.9641 -88.6245 -13.8193
RightUpLeg  6.00406 -0.684966 0.202176
RightLeg  -3.80962 -18.549 1.33147
RightFoot  -0.727488 -0.138239 1.43019
RightToes  -3.10678e-008 1.75238e-005 3.56266e-009
Spine  -4.60888 2.91962 1.53418
Spine1  5.0618 3.67051 -3.59428
HEad  0.338298 -6.84247 4.83963
LeftShoulder1  2.74327 -4.85614 -26.7108
LeftArm  -46.4985 21.5506 -53.8934
LeftForeArm  81.3126 -5.77616 5.07633
LeftHand  -0.607676 -5.93704 6.54914
RightShoulder  -0.000737854 -3.48793 10.7888
RightArm  -63.6686 40.8731 -5.67208
RightForeArm  123.891 67.8337 150.54
RightHand  0.351546 10.9031 2.07407
LeftUpLeg  4.09917 1.35851 2.47303
LeftLeg  -1.52298 12.248 -0.442585
LeftFoot  -1.01845 0.296228 -3.15025
LeftToes  4.76857e-008 1.46588e-008 1.31384e-009
